<svg width="32" height="32" viewBox="0 0 32 32" fill="none" xmlns="http://www.w3.org/2000/svg">
<path d="M20.9999 28.0004C20.9999 28.2656 20.8945 28.52 20.707 28.7075C20.5194 28.8951 20.2651 29.0004 19.9999 29.0004H11.9999C11.7346 29.0004 11.4803 28.8951 11.2927 28.7075C11.1052 28.52 10.9999 28.2656 10.9999 28.0004C10.9999 27.7352 11.1052 27.4808 11.2927 27.2933C11.4803 27.1058 11.7346 27.0004 11.9999 27.0004H19.9999C20.2651 27.0004 20.5194 27.1058 20.707 27.2933C20.8945 27.4808 20.9999 27.7352 20.9999 28.0004ZM25.9749 14.0004C25.9848 11.3625 24.9482 8.8283 23.0923 6.95365C21.2364 5.079 18.7127 4.01694 16.0749 4.00041H15.9999C14.6883 4.00205 13.3899 4.26201 12.1788 4.76545C10.9676 5.26888 9.86755 6.00593 8.94129 6.93452C8.01502 7.8631 7.28073 8.96504 6.78032 10.1774C6.27992 11.3898 6.02321 12.6888 6.02486 14.0004C6.02486 18.2879 5.13736 20.7129 4.39986 21.9879C4.22253 22.2932 4.12809 22.6395 4.12589 22.9925C4.1237 23.3455 4.21384 23.693 4.38736 24.0004C4.56237 24.3061 4.81549 24.5598 5.12079 24.7355C5.42609 24.9112 5.77261 25.0027 6.12486 25.0004H25.8749C26.2271 25.0027 26.5736 24.9112 26.8789 24.7355C27.1842 24.5598 27.4373 24.3061 27.6124 24.0004C27.7859 23.693 27.876 23.3455 27.8738 22.9925C27.8716 22.6395 27.7772 22.2932 27.5999 21.9879C26.8624 20.7129 25.9749 18.2879 25.9749 14.0004ZM28.5624 7.82541C27.4222 5.49693 25.6563 3.53189 23.4624 2.15041C23.2369 2.00951 22.9648 1.96394 22.7057 2.02372C22.4467 2.0835 22.222 2.24373 22.0811 2.46916C21.9402 2.69459 21.8946 2.96677 21.9544 3.2258C22.0142 3.48484 22.1744 3.70951 22.3999 3.85041C24.2744 5.03645 25.7876 6.71399 26.7749 8.70041C26.8558 8.87012 26.9834 9.0132 27.1429 9.11285C27.3023 9.21249 27.4869 9.26455 27.6749 9.26291C27.8258 9.25831 27.9744 9.22435 28.1124 9.16291C28.349 9.04479 28.5292 8.83774 28.6135 8.58708C28.6979 8.33641 28.6795 8.06254 28.5624 7.82541ZM5.22486 8.70041C6.21209 6.71399 7.72533 5.03645 9.59986 3.85041C9.71148 3.78065 9.80827 3.68958 9.8847 3.58241C9.96113 3.47524 10.0157 3.35406 10.0453 3.2258C10.0749 3.09754 10.0789 2.96471 10.0572 2.83488C10.0355 2.70506 9.98837 2.58078 9.91861 2.46916C9.84884 2.35754 9.75777 2.26075 9.6506 2.18432C9.54343 2.10789 9.42226 2.05332 9.294 2.02372C9.03496 1.96394 8.76279 2.00951 8.53736 2.15041C6.34344 3.53189 4.5775 5.49693 3.43736 7.82541C3.32025 8.06254 3.30186 8.33641 3.38619 8.58708C3.47053 8.83774 3.65073 9.04479 3.88736 9.16291C4.02531 9.22435 4.17391 9.25831 4.32486 9.26291C4.51286 9.26455 4.69742 9.21249 4.85685 9.11285C5.01628 9.0132 5.14395 8.87012 5.22486 8.70041Z" fill="#00A79A"/>
</svg>
