<svg width="32" height="32" viewBox="0 0 32 32" fill="none" xmlns="http://www.w3.org/2000/svg">
<path d="M11.9999 29.0002H19.9999C20.5522 29.0002 20.9999 28.5525 20.9999 28.0002C20.9999 27.4479 20.5522 27.0002 19.9999 27.0002H11.9999C11.4476 27.0002 10.9999 27.4479 10.9999 28.0002C10.9999 28.5525 11.4476 29.0002 11.9999 29.0002Z" fill="#1F2937"/>
<path fill-rule="evenodd" clip-rule="evenodd" d="M6.0249 14.0001V13.0001C6.0249 13.0001 6.02209 11.0058 6.78643 9.16231C6.78643 9.16231 7.55076 7.3188 8.96486 5.91057C8.96486 5.91057 10.379 4.50234 12.2256 3.74568C12.2256 3.74568 14.0723 2.98902 16.068 3.00012C16.068 3.00012 18.0972 3.01549 19.945 3.82615C19.945 3.82615 21.7228 4.60609 23.0914 6.01192C23.0914 6.01192 24.4547 7.41225 25.2023 9.21794C25.2023 9.21794 25.9749 11.0838 25.9749 13.1126V14.0001C25.9749 14.0001 25.9749 19.1872 27.6028 21.9991C27.6028 21.9991 27.8709 22.4634 27.8714 22.9983C27.8714 22.9983 27.8718 23.5333 27.6052 23.9971C27.6052 23.9971 27.3385 24.4608 26.8759 24.7295C26.8759 24.7295 26.4134 24.9982 25.8784 25.0001L6.1249 25.0001C6.1249 25.0001 5.58642 24.9982 5.12384 24.7295C5.12384 24.7295 4.66127 24.4608 4.39461 23.9971C4.39461 23.9971 4.12795 23.5333 4.12842 22.9983C4.12842 22.9983 4.12889 22.4634 4.39638 22.0001C4.39638 22.0001 6.0249 19.1872 6.0249 14.0001ZM8.0249 14.0001C8.0249 14.0001 8.0249 19.7244 6.12842 23.0001L25.8714 23.0001C25.8714 23.0001 23.9749 19.7235 23.9749 14.0001V13.1126C23.9749 13.1126 23.9749 9.78654 21.6584 7.40704C21.6584 7.40704 19.3393 5.02496 16.0568 5.00009C16.0568 5.00009 14.4608 4.99121 12.9839 5.59635C12.9839 5.59635 11.507 6.20149 10.3761 7.32772C10.3761 7.32772 9.24521 8.45395 8.63393 9.9283C8.63393 9.9283 8.02265 11.4027 8.0249 13.0001V14.0001Z" fill="#1F2937"/>
</svg>
