<svg xmlns="http://www.w3.org/2000/svg" width="17" height="17" viewBox="0 0 17 17" fill="none">
<path fill-rule="evenodd" clip-rule="evenodd" d="M7.66441 0.86377C7.66441 0.86377 9.03837 0.86377 10.294 1.39487C10.294 1.39487 11.5064 1.90766 12.4411 2.84233C12.4411 2.84233 13.3757 3.777 13.8885 4.98938C13.8885 4.98938 14.4196 6.24504 14.4196 7.619C14.4196 7.619 14.4196 8.99296 13.8885 10.2486C13.8885 10.2486 13.3758 11.461 12.4411 12.3957C12.4411 12.3957 11.5064 13.3303 10.294 13.8431C10.294 13.8431 9.03837 14.3742 7.66441 14.3742C7.66441 14.3742 6.29045 14.3742 5.03479 13.8431C5.03479 13.8431 3.82241 13.3303 2.88774 12.3957C2.88774 12.3957 1.95307 11.461 1.44028 10.2486C1.44028 10.2486 0.90918 8.99296 0.90918 7.619C0.90918 7.619 0.90918 6.24504 1.44028 4.98938C1.44028 4.98938 1.95307 3.777 2.88774 2.84233C2.88774 2.84233 3.82241 1.90767 5.03479 1.39487C5.03479 1.39487 6.29045 0.86377 7.66441 0.86377ZM7.66441 2.03859C7.66441 2.03859 6.52869 2.03859 5.49244 2.47689C5.49244 2.47689 4.4911 2.90042 3.71847 3.67306C3.71847 3.67306 2.94583 4.44569 2.5223 5.44703C2.5223 5.44703 2.084 6.48328 2.084 7.619C2.084 7.619 2.084 8.75472 2.5223 9.79097C2.5223 9.79097 2.94583 10.7923 3.71847 11.5649C3.71847 11.5649 4.4911 12.3376 5.49244 12.7611C5.49244 12.7611 6.52869 13.1994 7.66441 13.1994C7.66441 13.1994 8.80013 13.1994 9.83638 12.7611C9.83638 12.7611 10.8377 12.3376 11.6104 11.5649C11.6104 11.5649 12.383 10.7923 12.8065 9.79097C12.8065 9.79097 13.2448 8.75472 13.2448 7.619C13.2448 7.619 13.2448 6.48328 12.8065 5.44703C12.8065 5.44703 12.383 4.44569 11.6104 3.67306C11.6104 3.67306 10.8377 2.90042 9.83638 2.47689C9.83638 2.47689 8.80013 2.03859 7.66441 2.03859Z" fill="#6B7280"/>
<path d="M15.1788 15.9641C15.289 16.0743 15.4387 16.1365 15.5945 16.1365C15.7503 16.1365 15.8997 16.0746 16.0099 15.9644C16.12 15.8543 16.1819 15.7049 16.1819 15.5491C16.1819 15.3933 16.12 15.2439 16.0099 15.1337L12.4414 11.5653C12.3312 11.455 12.1818 11.3931 12.026 11.3931C11.8702 11.3931 11.7205 11.4548 11.6104 11.5649C11.5002 11.6751 11.4386 11.8248 11.4386 11.9806C11.4386 12.1364 11.5004 12.2858 11.6106 12.3959L15.1788 15.9641Z" fill="#6B7280"/>
<path d="M11.6104 11.5649C10.8377 12.3376 9.83638 12.7611 9.83638 12.7611C8.80013 13.1994 7.66441 13.1994 7.66441 13.1994C6.52869 13.1994 5.49244 12.7611 5.49244 12.7611C4.4911 12.3376 3.71847 11.5649 3.71847 11.5649C2.94583 10.7923 2.5223 9.79097 2.5223 9.79097C2.084 8.75472 2.084 7.619 2.084 7.619C2.084 6.48328 2.5223 5.44703 2.5223 5.44703C2.94583 4.44569 3.71847 3.67306 3.71847 3.67306C4.4911 2.90042 5.49244 2.47689 5.49244 2.47689C6.52869 2.03859 7.66441 2.03859 7.66441 2.03859C8.80013 2.03859 9.83638 2.47689 9.83638 2.47689C10.8377 2.90042 11.6104 3.67306 11.6104 3.67306C12.383 4.44569 12.8065 5.44703 12.8065 5.44703C13.2448 6.48328 13.2448 7.619 13.2448 7.619C13.2448 8.75472 12.8065 9.79097 12.8065 9.79097C12.383 10.7923 11.6104 11.5649 11.6104 11.5649ZM11.6104 11.5649C11.7205 11.4548 11.8702 11.3931 12.026 11.3931C12.1818 11.3931 12.3312 11.455 12.4414 11.5653L16.0099 15.1337C16.12 15.2439 16.1819 15.3933 16.1819 15.5491C16.1819 15.7049 16.12 15.8543 16.0099 15.9644C15.8997 16.0746 15.7503 16.1365 15.5945 16.1365C15.4387 16.1365 15.289 16.0743 15.1788 15.9641L11.6106 12.3959C11.5004 12.2858 11.4386 12.1364 11.4386 11.9806C11.4386 11.8248 11.5002 11.6751 11.6104 11.5649ZM7.66441 0.86377C7.66441 0.86377 9.03837 0.86377 10.294 1.39487C10.294 1.39487 11.5064 1.90766 12.4411 2.84233C12.4411 2.84233 13.3757 3.777 13.8885 4.98938C13.8885 4.98938 14.4196 6.24504 14.4196 7.619C14.4196 7.619 14.4196 8.99296 13.8885 10.2486C13.8885 10.2486 13.3758 11.461 12.4411 12.3957C12.4411 12.3957 11.5064 13.3303 10.294 13.8431C10.294 13.8431 9.03837 14.3742 7.66441 14.3742C7.66441 14.3742 6.29045 14.3742 5.03479 13.8431C5.03479 13.8431 3.82241 13.3303 2.88774 12.3957C2.88774 12.3957 1.95307 11.461 1.44028 10.2486C1.44028 10.2486 0.90918 8.99296 0.90918 7.619C0.90918 7.619 0.90918 6.24504 1.44028 4.98938C1.44028 4.98938 1.95307 3.777 2.88774 2.84233C2.88774 2.84233 3.82241 1.90767 5.03479 1.39487C5.03479 1.39487 6.29045 0.86377 7.66441 0.86377Z" stroke="#6B7280" stroke-width="0.5"/>
</svg>