<svg width="244" height="372" viewBox="0 0 244 372" fill="none" xmlns="http://www.w3.org/2000/svg">
<path d="M123.284 45.0079C122.74 45.63 122.582 61.0435 123.205 61.5956C123.406 61.7796 145.686 64.2243 151.905 65.9068C196.648 77.9817 230.409 116.739 232.62 163.847C233.997 193.184 221.796 223.065 199.929 242.491C237.067 257.537 246.005 291.764 216.358 309.263C221.533 309.902 226.182 309.131 228.769 314.213C233.076 322.669 239.409 341.351 242.172 350.797C245.672 362.776 238.12 369.847 228.725 370.408L21.5523 371.39C10.5529 369.769 6.81628 365.536 8.79863 354.627C10.1845 347.003 18.7718 324.352 22.1839 316.685C24.0347 312.522 27.0257 311.322 29.0958 310.209C26.3065 309.832 19.4121 308.439 17.0263 307.063C9.89507 302.962 3.5533 298.616 1.41307 290.992C-4.94624 268.306 11.6932 255.276 33.8324 240.485C0.544691 208.983 -6.0339 158.037 15.9649 118.027C34.8586 83.6511 72.8829 62.8048 111.881 61.5956L111.732 45.078C93.9081 39.6977 89.8469 15.4778 105.25 4.66474C129.222 -12.1508 154.396 24.9152 130.511 41.8972C128.88 43.0538 123.556 44.7187 123.292 45.0079H123.284Z" fill="#015860"/>
<path d="M115.835 10.5772C111.121 11.3231 106.084 16.2147 105.277 20.794C102.732 35.2347 121.697 42.1384 128.984 30.5426C134.917 21.0976 127.263 8.75584 115.844 10.5685L115.835 10.5772Z" fill="#015860"/>
<path d="M205.873 305.325C236.066 288.084 224.412 273.687 201.525 255.536C199.932 254.276 193.93 249.655 192.522 249.165C190.221 248.368 180.177 259.465 175.618 254.162C170.649 248.377 183.003 243.537 186.782 240.754C234.045 205.913 234.386 135.96 190.912 97.7847C158.925 69.6914 109.073 63.7577 70.5766 81.2613C4.46836 111.315 -8.62906 197.94 51.3111 242.084C53.6646 243.817 60.7951 247.292 61.8275 249.541C62.6062 251.239 61.8713 254.372 60.1739 255.177C53.7346 258.24 44.7492 246.539 40.8646 247.791C39.7535 248.149 32.2555 253.978 30.8907 255.177C11.7389 271.989 1.52865 286.316 28.2747 300.967C35.7902 305.08 42.002 304.432 50.1824 305.334C49.7537 301.177 51.9498 298.157 56.3681 299.479C60.4539 300.704 63.1574 314.479 71.1366 314.698C78.5995 314.908 75.9486 308.432 73.6038 304.196C72.0202 301.334 68.9143 300.266 70.2791 295.803C70.9091 293.729 74.4175 292.906 76.3248 293.475C78.7483 294.201 82.0467 300.967 83.1053 303.338C85.1264 307.863 84.9164 315.328 92.2919 313.167C100.919 310.637 87.8911 295.61 87.4537 292.967C86.6925 288.381 91.9507 285.441 95.7216 289.397C99.2912 293.134 103.622 302.078 103.412 307.32C114.06 304.537 105.862 290.876 101.391 285.712C93.4555 276.558 84.3477 274.431 72.4839 275.385C68.6518 275.691 63.5861 277.757 60.0077 277.232C59.0103 277.083 42.6932 271.377 41.7308 270.852C38.1262 268.874 38.0387 264.008 41.5471 262.406C46.6391 260.078 56.858 267.141 61.8538 267.412C65.4584 267.605 71.1278 265.592 75.1437 265.39C88.5298 264.717 100.411 269.88 109.073 280.015C114.795 286.71 119.51 296.468 118.049 305.307H138.015C137.56 280.426 153.991 259.649 180.247 261.4C185.041 261.723 205.558 264.585 200.177 272.672C197.132 277.24 191.848 273.022 188.077 272.208C172.241 268.769 158.864 271.447 151.2 286.902C148.496 292.364 142.818 307.294 153.308 306.655C152.792 303.067 158.75 288.049 161.086 286.649C164.113 284.837 168.374 286.78 168.602 290.394C168.715 292.25 164.14 299.269 163.256 302.297C162.294 305.579 160.64 311.11 164.437 313.167C171.008 316.72 171.769 305.447 172.95 302.008C173.475 300.468 176.887 293.563 177.937 293.029C181.087 291.41 185.059 292.486 185.304 296.328C185.505 299.487 181.174 303.627 180.64 307.705C180.045 312.283 181.262 316.396 186.756 315.171C193.887 313.578 195.881 300.039 199.862 298.927C203.607 297.886 206.599 301.719 205.873 305.316V305.325Z" fill="#015860"/>
<path d="M234.854 358.844C236.447 357.246 236.13 355.323 235.672 353.417C233.139 342.879 226.056 331.103 223.338 320.293C222.238 317.535 218.895 315.875 216.018 315.577C213.801 315.349 202.997 315.252 201.379 315.744C199.988 316.165 195.73 323.129 190.355 324.78C182.322 327.248 180.695 323.12 175.135 322.936C172.909 322.866 170.718 324.086 168.466 324.288C164.331 324.657 158.19 323.199 155.815 319.564C154.935 318.211 155.172 315.805 153.079 315.612H104.242C102.403 315.717 102.465 317.843 101.532 318.914C98.0483 322.874 93.6054 324.771 88.2651 324.218C86.1888 324.007 83.2328 322.4 81.614 322.479C74.9364 322.804 73.2384 327.292 63.9919 323.076C60.8335 321.636 56.8833 316.227 55.2733 315.753C53.4962 315.226 38.971 315.331 36.8331 315.77C34.8624 316.174 32.443 318.018 31.528 319.818L19.0439 355.367C19.651 359.064 21.7185 360.065 25.2816 360.39H230.059C231.397 360.381 233.957 359.731 234.854 358.835V358.844Z" fill="#015860"/>
<path d="M205.647 305.317C206.383 301.72 203.377 297.887 199.625 298.929C195.628 300.04 193.638 313.578 186.493 315.171C180.997 316.396 179.779 312.283 180.366 307.706C180.901 303.628 185.24 299.497 185.038 296.329C184.793 292.488 180.813 291.411 177.657 293.03C176.605 293.573 173.187 300.478 172.661 302.009C171.477 305.448 170.715 316.72 164.132 313.167C160.327 311.11 161.984 305.579 162.948 302.298C163.834 299.27 168.418 292.251 168.304 290.396C168.076 286.782 163.807 284.839 160.774 286.651C158.425 288.051 152.464 303.068 152.981 306.656C142.471 307.295 148.151 292.365 150.869 286.904C158.548 271.45 171.951 268.772 187.817 272.211C191.595 273.034 196.89 277.252 199.94 272.675C205.331 264.598 184.775 261.727 179.972 261.404C153.665 259.653 137.203 280.429 137.658 305.317H117.655C119.119 296.469 114.394 286.712 108.661 280.017C99.9826 269.875 88.0785 264.72 74.6666 265.394C70.6518 265.595 64.9628 267.608 61.3512 267.416C56.3459 267.144 46.1073 260.082 41.0055 262.41C37.4904 264.011 37.578 268.877 41.1896 270.855C42.1538 271.38 58.4935 277.086 59.5016 277.234C63.0868 277.759 68.1623 275.694 72.0018 275.388C83.8971 274.425 93.0137 276.561 100.964 285.714C105.444 290.869 113.649 304.529 102.989 307.321C103.191 302.079 98.8518 293.135 95.2841 289.399C91.506 285.443 86.2376 288.383 87.0003 292.969C87.4386 295.612 100.491 310.638 91.8478 313.167C84.4582 315.328 84.6685 307.864 82.6436 303.339C81.5829 300.968 78.2782 294.203 75.85 293.477C73.9391 292.908 70.4239 293.739 69.7928 295.804C68.4253 300.268 71.5372 301.326 73.1238 304.197C75.4731 308.432 78.1292 314.908 70.6518 314.698C62.6573 314.479 59.9487 300.696 55.855 299.48C51.4282 298.158 49.2279 301.178 49.6575 305.334C41.4526 304.433 35.6408 304.241 27.7076 300.968C1.13812 290.002 7.46712 270.163 27.4096 254.236C32.9847 249.782 37.5956 246.807 38.7176 246.448C42.6184 245.205 53.2252 258.253 59.6769 255.19C61.3775 254.376 62.1138 251.252 61.3337 249.554C60.2993 247.305 53.1551 243.831 50.797 242.098C-9.26702 197.94 3.85557 111.321 70.0908 81.2606C108.661 63.7583 158.609 69.6916 190.657 97.7828C234.215 135.955 233.864 205.904 186.52 240.742C182.733 243.525 170.355 248.364 175.334 254.149C179.901 259.452 191.639 247.06 193.944 247.857C195.356 248.347 202.851 251.76 204.613 252.784C229.902 267.529 235.907 288.068 205.647 305.308V305.317ZM108.187 106.648C66.4179 108.984 33.4668 133.041 39.7432 178.574C46.7647 229.444 106.241 239.499 148.195 229.112C185.135 219.967 204.972 187.351 194.111 150.229C182.873 111.793 143.435 104.67 108.179 106.648H108.187Z" fill="#2CBFBA"/>
<path d="M234.854 358.835C233.957 359.74 231.397 360.381 230.059 360.39H25.2816C21.7273 360.065 19.651 359.064 19.0439 355.367L31.528 319.818C32.443 318.018 34.8624 316.165 36.8331 315.77C38.971 315.331 53.505 315.226 55.2733 315.753C56.8833 316.227 60.8335 321.636 63.9919 323.076C73.2296 327.3 74.9364 322.804 81.614 322.479C83.2328 322.4 86.1888 324.007 88.2651 324.218C93.6054 324.763 98.0571 322.866 101.532 318.914C102.474 317.843 102.403 315.717 104.242 315.612H153.079C155.172 315.805 154.926 318.211 155.815 319.564C158.19 323.199 164.331 324.648 168.466 324.288C170.727 324.086 172.909 322.866 175.135 322.936C180.686 323.112 182.322 327.248 190.355 324.78C195.722 323.129 199.988 316.174 201.379 315.744C202.997 315.252 213.792 315.349 216.018 315.577C218.895 315.875 222.238 317.535 223.338 320.293C227.526 329.285 233.139 342.879 235.672 353.417C236.13 355.331 236.447 357.246 234.854 358.844V358.835ZM43.0444 336.319H64.1151C66.8336 336.319 69.4378 328.275 66.86 326.238C65.7251 325.342 49.3612 325.254 47.7424 325.983C45.1998 327.125 43.9154 333.729 43.0444 336.319ZM76.828 336.319C80.8573 336.943 87.79 336.319 92.2153 336.319C95.2506 336.319 95.233 328.205 93.9485 326.572C92.884 325.219 80.8661 325.219 79.177 325.983C76.0713 327.379 76.564 332.982 75.1476 335.652C75.8514 335.459 76.4672 336.275 76.828 336.328V336.319ZM120.483 335.494C121.732 334.422 121.653 328.609 120.703 327.256C119.172 325.087 108.984 325.254 106.239 325.606C105.183 325.746 104.11 325.869 103.591 326.967C102.94 328.337 102.201 334.493 103.934 335.318C104.462 335.573 114.122 336.363 115.635 336.381C116.673 336.389 119.84 336.056 120.491 335.494H120.483ZM132.113 334.888C132.659 335.766 150.562 336.135 152.331 335.555C153.994 335.011 155.155 326.563 149.709 325.667C147.562 325.316 133.574 325.395 132.413 326.22C131.841 326.624 131.77 334.334 132.113 334.879V334.888ZM180.185 335.652C180.29 333.219 180 327.792 177.774 326.37C176.199 325.36 164.384 325.184 162.783 325.966C160.504 327.072 161.19 335.652 162.448 335.652H180.176H180.185ZM210.959 335.652C210.722 333.86 208.786 326.651 207.625 325.957C206.719 325.412 195.097 325.412 193.188 325.588C184.68 326.378 189.88 335.652 190.557 335.652H210.959ZM87.9572 350.247C88.5114 351.134 103.177 351.459 104.831 350.914C106.617 350.335 106.749 343.195 104.18 341.737C101.831 340.403 91.6786 340.736 89.2241 342.01C87.4997 342.905 87.3589 349.281 87.966 350.247H87.9572ZM147.897 341.158C142.882 342.08 142.952 349.5 145.389 350.677C146.559 351.248 159.175 351.292 161.146 351.037C165.642 350.458 165.202 343.538 161.63 341.816C159.149 340.622 150.756 340.631 147.897 341.158ZM175.839 351.011H214.637C216.748 351.011 214.918 340.789 211.813 341.14C200.895 341.623 188.56 339.999 177.809 340.965C176.023 341.123 173.894 341.184 173.498 343.327C173.102 345.47 173.102 350.519 175.839 351.011ZM39.3669 351.011H76.828C78.174 351.011 81.3324 342.264 74.8572 341.623C67.7134 340.921 53.2674 341.026 46.0268 341.641C44.628 341.755 41.6367 342.115 40.6426 342.949C39.6484 343.784 37.6601 350.545 39.3581 351.02L39.3669 351.011ZM118.45 341.808C114.738 342.607 115.503 349.966 116.585 350.712C117.219 351.151 130.028 351.248 131.709 351.037C136.081 350.475 135.553 343.248 133.196 342.15C131.48 341.351 120.597 341.342 118.45 341.808Z" fill="#2CBFBA"/>
<path d="M115.842 10.5685C127.268 8.75584 134.921 21.0976 128.979 30.5426C121.694 42.1384 102.74 35.2347 105.276 20.794C106.082 16.206 111.119 11.3231 115.833 10.5772L115.842 10.5685Z" fill="#2CBFBA"/>
<path d="M108.207 106.689C143.442 104.703 182.856 111.858 194.087 150.464C204.933 187.742 185.116 220.502 148.199 229.697C106.271 240.13 46.8216 230.039 39.8132 178.934C33.5406 133.2 66.4628 109.036 108.216 106.689H108.207ZM85.2806 219.184C102.758 225.68 135.601 224.3 153.14 217.944C197.88 201.727 199.081 137.744 154.156 121.685C125.938 111.594 72.9982 112.614 56.1253 141.99C45.5513 160.396 46.6902 192.84 63.7558 207.045C69.6166 211.923 78.5437 216.679 85.2806 219.184Z" fill="#015860"/>
<path d="M175.555 351.39C172.834 350.877 172.842 345.42 173.227 343.227C173.612 341.035 175.738 340.886 177.515 340.718C188.207 339.701 200.474 341.418 211.332 340.905C214.421 340.532 216.241 351.39 214.141 351.39H175.555Z" fill="#015860"/>
<path d="M39.7 351.39C38.0059 350.91 40.016 344.039 40.9816 343.221C41.9471 342.403 44.9579 342.021 46.3536 341.896C53.5777 341.283 67.9819 341.168 75.1183 341.879C81.5787 342.528 78.4275 351.381 77.0845 351.381H39.7088L39.7 351.39Z" fill="#015860"/>
<path d="M43.0439 336.39C43.9193 333.757 45.2101 327.037 47.7654 325.886C49.3922 325.146 65.8377 325.235 66.9782 326.145C69.5688 328.215 66.9606 336.39 64.2197 336.39H43.0439Z" fill="#015860"/>
<path d="M132.244 334.467C131.913 333.934 131.981 326.503 132.532 326.114C133.659 325.317 147.12 325.241 149.187 325.58C154.431 326.444 153.313 334.594 151.711 335.12C150.009 335.679 132.769 335.323 132.244 334.476V334.467Z" fill="#015860"/>
<path d="M211.044 335.39H190.275C189.585 335.39 184.292 326.278 192.952 325.492C194.896 325.319 206.727 325.319 207.65 325.855C208.832 326.537 210.802 333.628 211.044 335.39Z" fill="#015860"/>
<path d="M148.04 340.75C150.801 340.191 158.941 340.182 161.344 341.449C164.813 343.275 165.231 350.617 160.875 351.232C158.966 351.502 146.753 351.456 145.61 350.85C143.25 349.592 143.181 341.719 148.04 340.75Z" fill="#015860"/>
<path d="M76.7569 336.124C76.3981 336.072 75.5372 336.003 75.0439 335.456C76.0574 332.687 75.9856 327.279 79.1514 325.899C80.8733 325.144 93.1239 325.143 94.209 326.48C95.5184 328.095 95.5363 336.116 92.4423 336.116C87.9313 336.116 80.8643 336.732 76.7569 336.116V336.124Z" fill="#015860"/>
<path d="M120.142 335.501C119.511 336.064 116.439 336.407 115.433 336.389C113.974 336.371 104.607 335.58 104.087 335.325C102.397 334.49 103.123 328.335 103.754 326.963C104.257 325.864 105.298 325.741 106.322 325.6C108.983 325.248 118.862 325.081 120.347 327.253C121.277 328.607 121.345 334.428 120.133 335.501H120.142Z" fill="#015860"/>
<path d="M180.017 335.39H162.218C160.946 335.39 160.257 326.956 162.553 325.869C164.161 325.1 176.024 325.273 177.605 326.266C179.831 327.664 180.132 332.999 180.026 335.39H180.017Z" fill="#015860"/>
<path d="M88.36 350.487C87.7696 349.548 87.9151 343.355 89.5837 342.485C91.971 341.248 101.846 340.924 104.13 342.22C106.637 343.636 106.501 350.572 104.764 351.135C103.155 351.655 88.8906 351.348 88.3515 350.487H88.36Z" fill="#015860"/>
<path d="M118.757 341.713C120.87 341.231 131.586 341.24 133.275 342.068C135.597 343.205 136.125 350.692 131.811 351.275C130.157 351.502 117.535 351.393 116.92 350.938C115.855 350.156 115.101 342.541 118.757 341.713Z" fill="#015860"/>
<path d="M85.2825 219.122C78.4949 216.605 69.5007 211.82 63.5958 206.929C46.4017 192.661 45.2542 160.082 55.9078 141.585C72.9077 112.078 126.246 111.054 154.677 121.19C199.93 137.321 198.73 201.578 153.653 217.877C135.982 224.26 102.891 225.646 85.2825 219.122ZM87.5333 154.422C76.6678 156.63 78.5479 179.612 89.3339 178.429C90.1724 178.34 95.1947 176.636 95.7949 176.115C102.291 170.474 99.7757 151.933 87.5333 154.422ZM149.293 154.422C139.398 155.879 137.694 172.805 146.071 177.466C161.932 186.304 165.313 152.065 149.293 154.422ZM100.27 187.293C96.4922 188.432 96.404 193.456 99.0961 196.246C105.027 202.391 118.885 204.024 126.9 202.514C131.993 201.552 146.477 195.875 140.748 188.82C137.165 184.406 131.993 190.807 127.959 192.175C122.38 194.074 114.269 193.659 108.973 191.072C106.113 189.677 103.907 186.198 100.27 187.293Z" fill="#FEFEFE"/>
<path d="M100.092 187.587C103.742 186.558 105.956 189.827 108.827 191.138C114.142 193.569 122.284 193.959 127.883 192.175C131.932 190.889 137.124 184.874 140.72 189.022C146.47 195.652 131.932 200.987 126.82 201.892C118.776 203.319 104.867 201.775 98.9133 196C96.2112 193.378 96.2998 188.649 100.092 187.587Z" fill="#015860"/>
<path d="M149.156 154.503C164.284 152.213 161.09 185.58 146.112 176.965C138.198 172.421 139.808 155.914 149.156 154.503Z" fill="#015860"/>
<path d="M87.3143 154.616C99.5448 152.155 102.058 170.474 95.5679 176.059C94.9683 176.574 89.9508 178.259 89.1131 178.346C78.3376 179.516 76.4593 156.798 87.3143 154.616Z" fill="#015860"/>
</svg>
